<svg width="{33}" height="{32}" viewBox="0 0 33 32" fill="none" xmlns="http://www.w3.org/2000/svg">
  <path fillrule="evenodd" cliprule="evenodd" d="M25.8888 21.5762C27.7255 19.3724 28.8298 16.5411 28.8298 13.4528C28.8298 6.42571 23.1121 0.729093 16.059 0.729093C9.00594 0.729093 3.28826 6.42571 3.28826 13.4528C3.28826 16.5935 4.43032 19.4683 6.32323 21.6876C5.20647 19.9204 4.56043 17.8282 4.56043 15.5856C4.56043 9.25178 9.71399 4.11717 16.0712 4.11717C22.4285 4.11717 27.5821 9.25178 27.5821 15.5856C27.5821 17.7812 26.9628 19.8327 25.8888 21.5762Z" fill="#228BE6" />
  <path fillrule="evenodd" cliprule="evenodd" d="M17.1352 27.0125C16.78 27.0401 16.421 27.0541 16.0587 27.0541C16.0098 27.0541 15.9609 27.0539 15.912 27.0533V10.6984L17.1352 11.663V27.0125ZM18.7254 26.7948V6.5546L15.912 8.91893V10.7471V27.0533C15.5246 27.0493 15.141 27.0292 14.7621 26.9936V10.3084L11.9486 12.2498V13.735L13.123 14.6612V26.7389C12.3195 26.5634 11.5424 26.3174 10.7987 26.0078V13.9889L7.98528 16.0243V24.4218C4.60277 21.9463 2.40725 17.955 2.40725 13.4529C2.40725 9.22477 4.34362 5.44728 7.381 2.95265C3.24398 5.73347 0.523438 10.4466 0.523438 15.7929C0.523438 24.3412 7.47883 31.271 16.0587 31.271C24.6386 31.271 31.5941 24.3412 31.5941 15.7929C31.5941 10.4466 28.8735 5.73345 24.7364 2.95264C27.7739 5.44726 29.7103 9.22477 29.7103 13.4529C29.7103 17.9659 27.5042 21.9655 24.1077 24.4397V14.6593L21.2943 12.624V26.018C20.4752 26.3571 19.6159 26.6191 18.7254 26.7948Z" fill="#228BE6" />
</svg>
